<?xml version="1.0" standalone="no"?>
<!DOCTYPE svg PUBLIC "-//W3C//DTD SVG 20010904//EN"
 "http://www.w3.org/TR/2001/REC-SVG-20010904/DTD/svg10.dtd">
<svg version="1.0" xmlns="http://www.w3.org/2000/svg"
 width="200.000000pt" height="200.000000pt" viewBox="0 0 200.000000 200.000000"
 preserveAspectRatio="xMidYMid meet">

<g transform="translate(0.000000,200.000000) scale(0.100000,-0.100000)"
fill="#000000" stroke="none">
<path d="M734 1296 c-75 -33 -100 -133 -48 -195 42 -50 128 -62 178 -26 15 12
17 17 7 29 -9 11 -26 13 -65 9 -41 -4 -56 -2 -69 12 -9 9 -17 21 -17 26 0 5
41 9 91 9 l92 0 -6 41 c-6 47 -29 76 -74 95 -39 17 -49 17 -89 0z m94 -58 c27
-27 13 -38 -48 -38 -33 0 -60 4 -60 9 0 34 81 56 108 29z"/>
<path d="M220 1291 c0 -8 52 -156 75 -213 4 -11 18 -18 35 -18 25 0 31 6 46
48 9 26 24 63 31 82 l14 35 13 -30 c7 -16 21 -54 30 -82 16 -48 21 -53 46 -53
16 0 31 4 34 9 3 5 24 59 46 121 l40 111 -32 -3 c-30 -3 -33 -7 -59 -83 -30
-90 -23 -94 -71 33 -17 46 -23 52 -48 52 -26 0 -30 -6 -56 -80 -16 -43 -31
-77 -33 -74 -3 3 -17 37 -31 77 -23 63 -30 72 -53 75 -15 2 -27 -1 -27 -7z"/>
<path d="M1640 905 c0 -21 5 -25 30 -25 25 0 30 4 30 25 0 21 -5 25 -30 25
-25 0 -30 -4 -30 -25z"/>
<path d="M1770 881 c0 -16 -6 -31 -15 -35 -8 -3 -15 -15 -15 -26 0 -11 7 -20
15 -20 12 0 15 -15 15 -78 0 -98 14 -122 71 -122 36 0 39 2 39 28 0 23 -4 28
-22 28 -22 -1 -23 3 -23 69 0 66 1 70 23 73 31 5 27 46 -5 50 -18 3 -23 10
-23 33 0 26 -3 29 -30 29 -26 0 -30 -3 -30 -29z"/>
<path d="M514 840 c-11 -4 -33 -22 -47 -40 -21 -24 -27 -42 -27 -79 0 -76 48
-121 131 -121 35 0 48 6 80 39 32 32 39 46 39 77 0 51 -18 83 -59 111 -35 23
-79 28 -117 13z m90 -61 c19 -15 26 -30 26 -55 0 -63 -62 -96 -108 -56 -49 41
-19 127 44 131 6 1 23 -8 38 -20z"/>
<path d="M737 843 c-4 -3 -7 -60 -7 -125 l0 -118 30 0 30 0 0 78 c0 65 3 82
20 100 25 27 41 28 69 5 17 -15 21 -31 23 -98 3 -78 4 -80 29 -83 27 -3 27 -3
31 78 3 71 6 84 27 101 30 24 46 24 71 -1 17 -17 20 -33 20 -100 l0 -80 30 0
30 0 0 79 c0 96 -13 137 -51 156 -41 22 -73 18 -107 -10 -29 -24 -30 -24 -47
-5 -28 31 -81 37 -115 12 -27 -21 -28 -21 -33 -2 -5 19 -36 27 -50 13z"/>
<path d="M1190 725 l0 -125 30 0 30 0 0 84 c0 76 2 86 22 100 30 21 44 20 68
-4 17 -17 20 -33 20 -100 l0 -80 30 0 30 0 0 79 c0 74 2 81 26 100 33 26 46
26 67 3 13 -14 17 -38 17 -100 l0 -82 30 0 30 0 0 96 c0 92 -1 97 -29 125 -18
17 -40 29 -56 29 -30 0 -81 -24 -88 -42 -4 -10 -9 -9 -19 3 -34 41 -96 51
-127 20 -19 -19 -19 -19 -24 0 -3 13 -14 19 -31 19 l-26 0 0 -125z"/>
<path d="M1647 844 c-4 -4 -7 -61 -7 -126 l0 -118 30 0 31 0 -3 123 c-3 114
-4 122 -23 125 -12 2 -24 0 -28 -4z"/>
<path d="M245 828 c-57 -33 -79 -101 -49 -156 21 -39 45 -57 91 -67 55 -11
135 41 89 58 -7 3 -17 2 -22 -3 -9 -8 -45 -14 -71 -11 -22 2 -53 44 -53 73 0
55 82 102 117 67 6 -6 21 -8 34 -4 l23 8 -28 23 c-30 27 -96 32 -131 12z"/>
</g>
</svg>
