<?xml version="1.0" standalone="no"?>
<!DOCTYPE svg PUBLIC "-//W3C//DTD SVG 20010904//EN"
 "http://www.w3.org/TR/2001/REC-SVG-20010904/DTD/svg10.dtd">
<svg version="1.0" xmlns="http://www.w3.org/2000/svg"
 width="361.000000pt" height="182.000000pt" viewBox="0 0 361.000000 182.000000"
 preserveAspectRatio="xMidYMid meet">

<g transform="translate(0.000000,182.000000) scale(0.100000,-0.100000)"
fill="#000000" stroke="none">
<path d="M3532 1798 c-23 -23 -7 -68 24 -68 14 0 44 27 44 40 0 13 -30 40 -44
40 -6 0 -17 -5 -24 -12z"/>
<path d="M90 353 c0 -4 12 -43 26 -86 22 -67 29 -78 47 -75 15 2 25 16 36 51
8 26 17 47 21 47 4 0 13 -21 21 -47 11 -35 21 -49 36 -51 18 -3 25 8 48 78 15
45 25 84 21 87 -13 14 -34 -9 -46 -51 -7 -26 -16 -48 -20 -51 -4 -2 -14 20
-24 50 -23 75 -46 75 -70 -1 -10 -31 -20 -53 -24 -50 -3 4 -13 28 -21 54 -10
29 -23 48 -33 50 -10 2 -18 0 -18 -5z"/>
<path d="M370 275 l0 -85 60 0 c47 0 60 3 60 15 0 11 -12 15 -45 15 -38 0 -45
3 -45 20 0 17 7 20 40 20 29 0 40 4 40 15 0 11 -11 15 -40 15 -33 0 -40 3 -40
20 0 17 7 20 45 20 33 0 45 4 45 15 0 12 -13 15 -60 15 l-60 0 0 -85z"/>
<path d="M555 348 c-32 -17 -45 -39 -45 -75 0 -64 72 -104 131 -72 30 16 12
30 -30 23 -28 -4 -42 -2 -54 11 -42 41 -3 102 57 91 42 -8 55 7 20 23 -31 14
-53 14 -79 -1z"/>
<path d="M696 339 c-21 -16 -26 -29 -26 -64 0 -35 5 -48 26 -64 88 -69 198 46
119 124 -30 31 -82 33 -119 4z m96 -26 c34 -31 11 -93 -35 -93 -27 0 -57 28
-57 53 0 48 56 73 92 40z"/>
<path d="M870 275 c0 -67 3 -85 14 -85 11 0 16 14 18 48 l3 47 22 -37 c12 -21
27 -38 32 -38 5 0 21 19 35 43 l25 42 1 -52 c0 -40 4 -53 15 -53 12 0 15 16
15 85 0 102 -14 111 -57 35 -15 -27 -31 -50 -35 -50 -4 0 -19 22 -35 50 -41
74 -53 66 -53 -35z"/>
<path d="M1080 275 c0 -78 2 -85 20 -85 17 0 20 7 20 48 l1 47 22 -37 c12 -21
27 -38 32 -38 6 0 19 16 29 35 26 47 36 44 36 -10 0 -33 4 -45 15 -45 12 0 15
16 15 85 0 102 -13 110 -59 35 -17 -27 -33 -50 -36 -50 -3 0 -19 23 -36 50
-46 75 -59 67 -59 -35z"/>
<path d="M1300 276 c0 -80 1 -86 20 -86 20 0 21 5 18 82 -3 70 -6 83 -20 86
-16 3 -18 -6 -18 -82z"/>
<path d="M1350 345 c0 -9 9 -15 25 -15 24 0 25 -2 25 -70 0 -63 2 -70 20 -70
18 0 20 7 20 70 0 68 1 70 25 70 16 0 25 6 25 15 0 12 -14 15 -70 15 -56 0
-70 -3 -70 -15z"/>
</g>
</svg>
